<svg width="58" height="106" viewBox="0 0 58 106" fill="none" xmlns="http://www.w3.org/2000/svg">
<path d="M49.0706 82.5111V22.4883" stroke="#6C63FF" stroke-width="2" stroke-miterlimit="10"/>
<path d="M49.0706 30.9762C53.7584 30.9762 57.5587 27.1759 57.5587 22.4881C57.5587 17.8002 53.7584 14 49.0706 14C44.3828 14 40.5825 17.8002 40.5825 22.4881C40.5825 27.1759 44.3828 30.9762 49.0706 30.9762Z" fill="#F50057"/>
<path d="M49.0705 59.4813C49.0705 59.4813 47.8579 33.4012 23 36.4327L49.0705 59.4813Z" fill="#F50057"/>
<path d="M7 106V7" stroke="#3F3D56" stroke-width="2" stroke-miterlimit="10"/>
<path d="M7 14C10.866 14 14 10.866 14 7.00001C14 3.13401 10.866 0 7 0C3.134 0 0 3.13401 0 7.00001C0 10.866 3.134 14 7 14Z" fill="#3F3D56"/>
<path d="M7 35.5079C7 35.5079 8.00002 14.0001 28.5 16.5001L7 35.5079Z" fill="#3F3D56"/>
<path d="M6.99994 104.076C6.99994 104.076 2.49995 64.5 28.5 62.5" stroke="#3F3D56" stroke-width="2" stroke-miterlimit="10"/>
<path d="M28.5 69.5C32.366 69.5 35.5 66.366 35.5 62.5C35.5 58.634 32.366 55.5 28.5 55.5C24.634 55.5 21.5 58.634 21.5 62.5C21.5 66.366 24.634 69.5 28.5 69.5Z" fill="#3F3D56"/>
</svg>
