<svg width="26" height="49" viewBox="0 0 26 49" fill="none" xmlns="http://www.w3.org/2000/svg">
<path d="M13.5286 49.0003V22.7891H12.4714V47.4392" fill="#3F3D56"/>
<path d="M13 25.6528C20.1797 25.6528 26 19.9102 26 12.8264C26 5.74256 20.1797 0 13 0C5.8203 0 0 5.74256 0 12.8264C0 19.9102 5.8203 25.6528 13 25.6528Z" fill="#F9A826"/>
<path d="M20.0989 37.2842C16.9773 39.7254 12.6548 39.4738 12.6548 39.4738C12.6548 39.4738 13.3933 35.2641 16.5149 32.8229C19.6365 30.3817 23.959 30.6333 23.959 30.6333C23.959 30.6333 23.2205 34.843 20.0989 37.2842Z" fill="#F9A826"/>
<path d="M9.78456 32.582C12.579 35.3827 12.7884 39.6499 12.7884 39.6499C12.7884 39.6499 8.46723 39.3764 5.67281 36.5757C2.8784 33.7751 2.66895 29.5078 2.66895 29.5078C2.66895 29.5078 6.99014 29.7813 9.78456 32.582Z" fill="#F9A826"/>
</svg>
