<svg width="63" height="120" viewBox="0 0 63 120" fill="none" xmlns="http://www.w3.org/2000/svg">
<path d="M32.6887 120V55.8096H30.1343V116.177" fill="#3F3D56"/>
<path d="M31.4115 62.8231C48.7596 62.8231 62.8231 48.7596 62.8231 31.4115C62.8231 14.0634 48.7596 0 31.4115 0C14.0634 0 0 14.0634 0 31.4115C0 48.7596 14.0634 62.8231 31.4115 62.8231Z" fill="#F9A826"/>
<path d="M48.5644 91.3078C41.0218 97.2864 30.5773 96.6701 30.5773 96.6701C30.5773 96.6701 32.3618 86.3607 39.9044 80.3822C47.4469 74.4037 57.8914 75.02 57.8914 75.02C57.8914 75.02 56.1069 85.3293 48.5644 91.3078Z" fill="#F9A826"/>
<path d="M23.6423 79.7933C30.3944 86.6521 30.9005 97.1025 30.9005 97.1025C30.9005 97.1025 20.4593 96.4326 13.7073 89.5738C6.95519 82.7151 6.4491 72.2646 6.4491 72.2646C6.4491 72.2646 16.8903 72.9345 23.6423 79.7933Z" fill="#F9A826"/>
</svg>
