<svg width="70" height="80" viewBox="0 0 70 80" fill="none" xmlns="http://www.w3.org/2000/svg">
<path d="M13.5286 80.0003V53.7891H12.4714V78.4392" fill="#3F3D56"/>
<path d="M13 56.6528C20.1797 56.6528 26 50.9102 26 43.8264C26 36.7426 20.1797 31 13 31C5.8203 31 0 36.7426 0 43.8264C0 50.9102 5.8203 56.6528 13 56.6528Z" fill="#F9A826"/>
<path d="M20.0989 68.2842C16.9773 70.7254 12.6548 70.4738 12.6548 70.4738C12.6548 70.4738 13.3933 66.2641 16.5149 63.8229C19.6365 61.3817 23.959 61.6333 23.959 61.6333C23.959 61.6333 23.2205 65.843 20.0989 68.2842Z" fill="#F9A826"/>
<path d="M9.78456 63.582C12.579 66.3827 12.7884 70.6499 12.7884 70.6499C12.7884 70.6499 8.46723 70.3764 5.67281 67.5757C2.8784 64.7751 2.66895 60.5078 2.66895 60.5078C2.66895 60.5078 6.99014 60.7813 9.78456 63.582Z" fill="#F9A826"/>
<path d="M61.0706 68.5111V8.48828" stroke="#6C63FF" stroke-width="2" stroke-miterlimit="10"/>
<path d="M61.0706 16.9762C65.7584 16.9762 69.5587 13.1759 69.5587 8.48808C69.5587 3.80024 65.7584 0 61.0706 0C56.3828 0 52.5825 3.80024 52.5825 8.48808C52.5825 13.1759 56.3828 16.9762 61.0706 16.9762Z" fill="#F50057"/>
<path d="M61.0705 45.4813C61.0705 45.4813 59.8579 19.4012 35 22.4327L61.0705 45.4813Z" fill="#F50057"/>
</svg>
