<svg width="42" height="112" viewBox="0 0 42 112" fill="none" xmlns="http://www.w3.org/2000/svg">
<path d="M33.0706 68.5111V8.48828" stroke="#6C63FF" stroke-width="2" stroke-miterlimit="10"/>
<path d="M33.0706 16.9762C37.7584 16.9762 41.5587 13.1759 41.5587 8.48808C41.5587 3.80024 37.7584 0 33.0706 0C28.3828 0 24.5825 3.80024 24.5825 8.48808C24.5825 13.1759 28.3828 16.9762 33.0706 16.9762Z" fill="#F50057"/>
<path d="M33.0705 45.4813C33.0705 45.4813 31.8579 19.4012 7 22.4327L33.0705 45.4813Z" fill="#F50057"/>
<path d="M20 112L20 61" stroke="#3F3D56" stroke-width="2" stroke-miterlimit="10"/>
<path d="M8.53667 38.3518C9.99335 41.7037 13.3266 45.3531 15.1397 44.5652C16.9527 43.7772 16.559 38.8504 15.1023 35.4985C13.6456 32.1466 11.6776 31.6389 9.8646 32.4269C8.05155 33.2148 7.08 34.9999 8.53667 38.3518Z" fill="white"/>
<path d="M21.7104 35.6667C20.5857 39.1441 20.6717 44.0859 22.5526 44.6942C24.4335 45.3026 27.3971 41.3471 28.5218 37.8697C29.6465 34.3923 28.5064 32.7098 26.6254 32.1015C24.7445 31.4932 22.8351 32.1893 21.7104 35.6667Z" fill="white"/>
<path d="M33.3548 43.6838C29.834 44.6641 25.7597 47.462 26.29 49.3665C26.8202 51.2709 31.7543 51.5606 35.2751 50.5803C38.7959 49.5999 39.5702 47.7208 39.0399 45.8164C38.5097 43.912 36.8757 42.7035 33.3548 43.6838Z" fill="white"/>
<path d="M33.889 57.8326C31.3047 55.2483 26.8655 53.0754 25.4676 54.4733C24.0698 55.8711 26.2427 60.3104 28.827 62.8947C31.4113 65.479 33.4283 65.2297 34.8262 63.8318C36.224 62.434 36.4733 60.4169 33.889 57.8326Z" fill="white"/>
<path d="M24.8344 65.4012C24.4085 61.7713 22.272 57.3144 20.3087 57.5448C18.3453 57.7752 17.2985 62.6056 17.7244 66.2354C18.1503 69.8652 19.8876 70.92 21.851 70.6896C23.8144 70.4592 25.2603 69.031 24.8344 65.4012Z" fill="white"/>
<path d="M4.30166 53.1933C7.85864 53.7526 12.6413 52.8189 12.9277 50.7846C13.214 48.7504 8.89577 46.3858 5.33879 45.8265C1.78181 45.2672 0.333085 46.7251 0.0466905 48.7594C-0.239704 50.7936 0.744682 52.634 4.30166 53.1933Z" fill="white"/>
<path d="M12.6227 64.5456C14.9555 61.7324 16.7064 57.1101 15.1849 55.8477C13.6635 54.5853 9.44594 57.1607 7.11322 59.9739C4.7805 62.787 5.21602 64.7726 6.73743 66.035C8.25883 67.2975 10.29 67.3587 12.6227 64.5456Z" fill="white"/>
<path d="M19.706 55.1178C22.1425 55.1178 24.1177 53.0109 24.1177 50.4119C24.1177 47.813 22.1425 45.7061 19.706 45.7061C17.2694 45.7061 15.2942 47.813 15.2942 50.4119C15.2942 53.0109 17.2694 55.1178 19.706 55.1178Z" fill="#F9A826"/>
</svg>
