<svg width="82" height="106" viewBox="0 0 82 106" fill="none" xmlns="http://www.w3.org/2000/svg">
<path d="M13.5286 89.0003V62.7891H12.4714V87.4392" fill="#3F3D56"/>
<path d="M13 65.6528C20.1797 65.6528 26 59.9102 26 52.8264C26 45.7426 20.1797 40 13 40C5.8203 40 0 45.7426 0 52.8264C0 59.9102 5.8203 65.6528 13 65.6528Z" fill="#F9A826"/>
<path d="M20.0989 77.2842C16.9773 79.7254 12.6548 79.4738 12.6548 79.4738C12.6548 79.4738 13.3933 75.2641 16.5149 72.8229C19.6365 70.3817 23.959 70.6333 23.959 70.6333C23.959 70.6333 23.2205 74.843 20.0989 77.2842Z" fill="#F9A826"/>
<path d="M9.78456 72.582C12.579 75.3827 12.7884 79.6499 12.7884 79.6499C12.7884 79.6499 8.46723 79.3764 5.67281 76.5757C2.8784 73.7751 2.66895 69.5078 2.66895 69.5078C2.66895 69.5078 6.99014 69.7813 9.78456 72.582Z" fill="#F9A826"/>
<path d="M53 106V7" stroke="#3F3D56" stroke-width="2" stroke-miterlimit="10"/>
<path d="M53 14C56.866 14 60 10.866 60 7.00001C60 3.13401 56.866 0 53 0C49.134 0 46 3.13401 46 7.00001C46 10.866 49.134 14 53 14Z" fill="#3F3D56"/>
<path d="M53 35.5079C53 35.5079 54 14.0001 74.5 16.5001L53 35.5079Z" fill="#3F3D56"/>
<path d="M52.9999 104.076C52.9999 104.076 48.5 64.5 74.5 62.5" stroke="#3F3D56" stroke-width="2" stroke-miterlimit="10"/>
<path d="M74.5 69.5C78.366 69.5 81.5 66.366 81.5 62.5C81.5 58.634 78.366 55.5 74.5 55.5C70.634 55.5 67.5 58.634 67.5 62.5C67.5 66.366 70.634 69.5 74.5 69.5Z" fill="#3F3D56"/>
</svg>
