<svg width="77" height="106" viewBox="0 0 77 106" fill="none" xmlns="http://www.w3.org/2000/svg">
<path d="M48 106V7" stroke="#3F3D56" stroke-width="2" stroke-miterlimit="10"/>
<path d="M48 14C51.866 14 55 10.866 55 7.00001C55 3.13401 51.866 0 48 0C44.134 0 41 3.13401 41 7.00001C41 10.866 44.134 14 48 14Z" fill="#3F3D56"/>
<path d="M48 35.5079C48 35.5079 49 14.0001 69.5 16.5001L48 35.5079Z" fill="#3F3D56"/>
<path d="M47.9999 104.076C47.9999 104.076 43.5 64.5 69.5 62.5" stroke="#3F3D56" stroke-width="2" stroke-miterlimit="10"/>
<path d="M69.5 69.5C73.366 69.5 76.5 66.366 76.5 62.5C76.5 58.634 73.366 55.5 69.5 55.5C65.634 55.5 62.5 58.634 62.5 62.5C62.5 66.366 65.634 69.5 69.5 69.5Z" fill="#3F3D56"/>
<path d="M20 99L20 48" stroke="#3F3D56" stroke-width="2" stroke-miterlimit="10"/>
<path d="M8.53667 25.3518C9.99335 28.7037 13.3266 32.3531 15.1397 31.5652C16.9527 30.7772 16.559 25.8504 15.1023 22.4985C13.6456 19.1466 11.6776 18.6389 9.8646 19.4269C8.05155 20.2148 7.08 21.9999 8.53667 25.3518Z" fill="white"/>
<path d="M21.7104 22.6667C20.5857 26.1441 20.6717 31.0859 22.5526 31.6942C24.4335 32.3026 27.3971 28.3471 28.5218 24.8697C29.6465 21.3923 28.5064 19.7098 26.6254 19.1015C24.7445 18.4932 22.8351 19.1893 21.7104 22.6667Z" fill="white"/>
<path d="M33.3548 30.6838C29.834 31.6641 25.7597 34.462 26.29 36.3665C26.8202 38.2709 31.7543 38.5606 35.2751 37.5803C38.7959 36.5999 39.5702 34.7208 39.0399 32.8164C38.5097 30.912 36.8757 29.7035 33.3548 30.6838Z" fill="white"/>
<path d="M33.889 44.8326C31.3047 42.2483 26.8655 40.0754 25.4676 41.4733C24.0698 42.8711 26.2427 47.3104 28.827 49.8947C31.4113 52.479 33.4283 52.2297 34.8262 50.8318C36.224 49.434 36.4733 47.4169 33.889 44.8326Z" fill="white"/>
<path d="M24.8344 52.4012C24.4085 48.7713 22.272 44.3144 20.3087 44.5448C18.3453 44.7752 17.2985 49.6056 17.7244 53.2354C18.1503 56.8652 19.8876 57.92 21.851 57.6896C23.8144 57.4592 25.2603 56.031 24.8344 52.4012Z" fill="white"/>
<path d="M4.30166 40.1933C7.85864 40.7526 12.6413 39.8189 12.9277 37.7846C13.214 35.7504 8.89577 33.3858 5.33879 32.8265C1.78181 32.2672 0.333085 33.7251 0.0466905 35.7594C-0.239704 37.7936 0.744682 39.634 4.30166 40.1933Z" fill="white"/>
<path d="M12.6227 51.5456C14.9555 48.7324 16.7064 44.1101 15.1849 42.8477C13.6635 41.5853 9.44594 44.1607 7.11322 46.9739C4.7805 49.787 5.21602 51.7726 6.73743 53.035C8.25883 54.2975 10.29 54.3587 12.6227 51.5456Z" fill="white"/>
<path d="M19.706 42.1178C22.1425 42.1178 24.1177 40.0109 24.1177 37.4119C24.1177 34.813 22.1425 32.7061 19.706 32.7061C17.2694 32.7061 15.2942 34.813 15.2942 37.4119C15.2942 40.0109 17.2694 42.1178 19.706 42.1178Z" fill="#F9A826"/>
</svg>
