<svg width="40" height="81" viewBox="0 0 40 81" fill="none" xmlns="http://www.w3.org/2000/svg">
<path d="M20 81L20 30" stroke="#3F3D56" stroke-width="2" stroke-miterlimit="10"/>
<path d="M8.53667 7.35182C9.99335 10.7037 13.3266 14.3531 15.1397 13.5652C16.9527 12.7772 16.559 7.85041 15.1023 4.49852C13.6456 1.14662 11.6776 0.638946 9.8646 1.42686C8.05155 2.21478 7.08 3.99993 8.53667 7.35182Z" fill="white"/>
<path d="M21.7104 4.66671C20.5857 8.1441 20.6717 13.0859 22.5526 13.6942C24.4335 14.3026 27.3971 10.3471 28.5218 6.86971C29.6465 3.39233 28.5064 1.70984 26.6254 1.1015C24.7445 0.493158 22.8351 1.18933 21.7104 4.66671Z" fill="white"/>
<path d="M33.3548 12.6838C29.834 13.6641 25.7597 16.462 26.29 18.3665C26.8202 20.2709 31.7543 20.5606 35.2751 19.5803C38.7959 18.5999 39.5702 16.7208 39.0399 14.8164C38.5097 12.912 36.8757 11.7035 33.3548 12.6838Z" fill="white"/>
<path d="M33.889 26.8326C31.3047 24.2483 26.8655 22.0754 25.4676 23.4733C24.0698 24.8711 26.2427 29.3104 28.827 31.8947C31.4113 34.479 33.4283 34.2297 34.8262 32.8318C36.224 31.434 36.4733 29.4169 33.889 26.8326Z" fill="white"/>
<path d="M24.8344 34.4012C24.4085 30.7713 22.272 26.3144 20.3087 26.5448C18.3453 26.7752 17.2985 31.6056 17.7244 35.2354C18.1503 38.8652 19.8876 39.92 21.851 39.6896C23.8144 39.4592 25.2603 38.031 24.8344 34.4012Z" fill="white"/>
<path d="M4.30166 22.1933C7.85864 22.7526 12.6413 21.8189 12.9277 19.7846C13.214 17.7504 8.89577 15.3858 5.33879 14.8265C1.78181 14.2672 0.333085 15.7251 0.0466905 17.7594C-0.239704 19.7936 0.744682 21.634 4.30166 22.1933Z" fill="white"/>
<path d="M12.6227 33.5456C14.9555 30.7324 16.7064 26.1101 15.1849 24.8477C13.6635 23.5853 9.44594 26.1607 7.11322 28.9739C4.7805 31.787 5.21602 33.7726 6.73743 35.035C8.25883 36.2975 10.29 36.3587 12.6227 33.5456Z" fill="white"/>
<path d="M19.706 24.1178C22.1425 24.1178 24.1177 22.0109 24.1177 19.4119C24.1177 16.813 22.1425 14.7061 19.706 14.7061C17.2694 14.7061 15.2942 16.813 15.2942 19.4119C15.2942 22.0109 17.2694 24.1178 19.706 24.1178Z" fill="#F9A826"/>
</svg>
