<svg width="51" height="48" viewBox="0 0 51 48" fill="none" xmlns="http://www.w3.org/2000/svg">
<path d="M0 33L9 28V32L0 33Z" fill="#394231"/>
<path d="M11.3341 12.3512C8.6822 10.4262 8.90065 8.1776 10.3123 6.23289C11.724 4.28817 13.7943 3.38381 16.4462 5.3088C19.098 7.23379 19.9156 13.2039 19.9156 13.2039C19.9156 13.2039 13.986 14.2762 11.3341 12.3512Z" fill="white" fill-opacity="0.75"/>
<path d="M16.7427 5.58756C17.1311 2.33378 19.2011 1.42859 21.5872 1.71345C23.9733 1.9983 25.772 3.36533 25.3836 6.61912C24.9951 9.87291 20.1805 13.4965 20.1805 13.4965C20.1805 13.4965 16.3542 8.84137 16.7427 5.58756Z" fill="white" fill-opacity="0.75"/>
<path d="M31.4313 42.8758C42.1448 40.187 49.0315 30.8423 46.8133 22.0037C44.5951 13.1651 34.1119 8.17963 23.3984 10.8684C12.685 13.5571 5.79823 22.9019 8.01645 31.7405C10.2347 40.5791 20.7179 45.5645 31.4313 42.8758Z" fill="#FFD480"/>
<mask id="mask0_168_7580" style="mask-type:alpha" maskUnits="userSpaceOnUse" x="7" y="10" width="41" height="34">
<path d="M31.4313 42.8758C42.1448 40.187 49.0315 30.8423 46.8133 22.0037C44.5951 13.1651 34.1119 8.17963 23.3984 10.8684C12.685 13.5571 5.79823 22.9019 8.01645 31.7405C10.2347 40.5791 20.7179 45.5645 31.4313 42.8758Z" fill="#FFD480"/>
</mask>
<g mask="url(#mask0_168_7580)">
<path d="M24.3795 41.2469C16.4648 35.1652 18.9989 22.3163 21.2553 16.652C24.9001 10.5406 30.9402 1.62681 25.9415 14.8633C20.9428 28.0998 26.6357 38.8619 30.1071 42.5884C31.4956 44.6752 32.2941 47.3285 24.3795 41.2469Z" fill="#394231"/>
<path d="M32.9312 40.2469C25.6761 34.1652 27.999 21.3163 30.0673 15.652C33.4085 9.54058 38.9452 0.626815 34.363 13.8633C29.7809 27.0998 34.9994 37.8619 38.1815 41.5884C39.4543 43.6752 40.1862 46.3285 32.9312 40.2469Z" fill="#394231"/>
<path d="M15.3795 41.2469C7.46484 35.1652 9.9989 22.3163 12.2553 16.652C15.9001 10.5406 21.9402 1.62681 16.9415 14.8633C11.9428 28.0998 17.6357 38.8619 21.1071 42.5884C22.4956 44.6752 23.2941 47.3285 15.3795 41.2469Z" fill="#394231"/>
</g>
<path d="M45.2046 23.6993C44.3697 25.751 42.3698 25.251 41.3697 25.2513C39.8698 25.251 39.7485 23.733 41.8696 24.251C43.9907 24.7689 44.7098 23.297 44.9018 22.3307C45.0555 21.9162 45.9936 21.7602 45.2046 23.6993Z" fill="#394231"/>
<circle cx="39" cy="21" r="1" fill="#394231"/>
<circle cx="45" cy="17" r="1" fill="#394231"/>
</svg>
