<svg width="390" height="518" viewBox="0 0 390 518" fill="none" xmlns="http://www.w3.org/2000/svg">
<path d="M453 328.674C453.057 361.033 444.093 392.967 426.803 422H-12.5244C-16.6288 422 -20.565 420.652 -23.4673 418.254C-26.3695 415.855 -28 412.602 -28 409.21V227.625C39.5014 124.939 194.945 86.9203 319.194 142.707C359.681 160.886 393.482 187.757 417.032 220.488C440.582 253.218 453.008 290.594 453 328.674V328.674Z" fill="#E3E8B3"/>
<path d="M440 424.674C440.057 457.033 431.093 488.967 413.803 518H-25.5244C-29.6288 518 -33.565 516.652 -36.4673 514.254C-39.3695 511.855 -41 508.602 -41 505.21V323.625C26.5014 220.939 181.945 182.92 306.194 238.707C346.681 256.886 380.482 283.757 404.032 316.488C427.582 349.218 440.008 386.594 440 424.674V424.674Z" fill="#304120"/>
</svg>
