<svg width="390" height="707" viewBox="0 0 390 707" fill="none" xmlns="http://www.w3.org/2000/svg" preserveAspectRatio="none">
<path fill-rule="evenodd" clip-rule="evenodd" d="M390 19.4796C367.202 24.1252 340.639 31.9634 314.009 39.8214C260.378 55.6468 206.473 71.5528 182.5 61.6251C156.012 50.6559 133.699 40.3343 114.362 31.3894L114.361 31.3892C62.5709 7.43207 32.128 -6.65018 0 3.14911V312.759H390V19.4796Z" fill="#8FB062"/>
<path fill-rule="evenodd" clip-rule="evenodd" d="M0 622H302.999C308.421 622 313.665 619.124 318 613.879V297.315C281.515 214.388 230.442 152.127 171.682 119.485C115.991 88.5464 56.2834 85.8184 0 111.076V622Z" fill="#5D793D"/>
<path fill-rule="evenodd" clip-rule="evenodd" d="M0 707H390V207.665C330.375 181.248 267.143 186.275 209.068 222.479C191.194 233.658 166.21 247.618 136.809 264.047L136.773 264.068L136.724 264.094C96.9907 286.298 49.2009 313.004 0 343.434V707Z" fill="#48632E"/>
</svg>
