<svg width="390" height="401" viewBox="0 0 390 401" fill="none" xmlns="http://www.w3.org/2000/svg">
<path d="M453 211.674C453.057 244.033 444.093 275.967 426.803 305H-12.5244C-16.6288 305 -20.565 303.652 -23.4673 301.254C-26.3695 298.855 -28 295.602 -28 292.21V110.625C39.5014 7.93946 194.945 -30.0797 319.194 25.7073C359.681 43.8859 393.482 70.7573 417.032 103.488C440.582 136.218 453.008 173.594 453 211.674V211.674Z" fill="#E3E8B3"/>
<path d="M440 397.674C440.057 430.033 431.093 461.967 413.803 491H-25.5244C-29.6288 491 -33.565 489.652 -36.4673 487.254C-39.3695 484.855 -41 481.602 -41 478.21V296.625C26.5014 193.939 181.945 155.92 306.194 211.707C346.681 229.886 380.482 256.757 404.032 289.488C427.582 322.218 440.008 359.594 440 397.674V397.674Z" fill="#304120"/>
</svg>
