<svg width="390" height="562" viewBox="0 0 390 562" fill="none" xmlns="http://www.w3.org/2000/svg" preserveAspectRatio="none">
<path d="M0 162H225.548C234.426 146.579 239.029 129.617 239 112.43C239.004 92.2041 232.623 72.3518 220.53 54.9672C208.436 37.5826 191.079 23.3099 170.289 13.6544C110.992 -13.8837 37.86 1.61274 0 47.72V162Z" fill="#8FB062"/>
<path d="M390 102.3C372.732 78.1133 348.559 59.9538 320.748 50.433C290.138 39.9541 256.965 40.5711 226.743 52.1813C218.28 55.443 206.449 59.5171 192.526 64.3114C133.514 84.6323 36.9278 117.892 0 157.064V197H382.9C385.466 197 387.948 196.161 390 194.631V102.3Z" fill="#5C763E"/>
<path d="M390 169.531C335.495 118.52 260.405 87 177.5 87C111.144 87 49.7953 107.192 0 141.408V562H390V169.531Z" fill="#48632E"/>
</svg>
