<svg width="390" height="639" viewBox="0 0 390 639" fill="none" xmlns="http://www.w3.org/2000/svg" preserveAspectRatio="none">
<path d="M0 243H338.038C340.944 242.997 343.73 241.95 345.785 240.091C347.84 238.231 348.996 235.709 349 233.079C349 229.382 348.905 225.699 348.714 222.03C347.665 201.008 343.444 180.214 336.17 160.227C336.17 160.227 336.176 160.221 336.17 160.221C334.582 155.842 332.841 151.499 330.949 147.193C330.24 145.575 329.511 143.961 328.761 142.354C322.883 129.752 315.784 117.646 307.545 106.178C304.62 102.094 301.548 98.0958 298.33 94.1838C290.785 85.0109 282.511 76.3486 273.572 68.2661C269.922 64.9624 266.182 61.7724 262.353 58.6962C261.799 58.2464 261.245 57.8018 260.685 57.3675C246.919 46.4712 231.9 36.9433 215.888 28.9475C215.659 28.8234 215.437 28.7148 215.208 28.6062C211.946 26.9828 208.644 25.4283 205.303 23.9428C205.245 23.917 205.189 23.8911 205.132 23.8654C204.847 23.7363 204.566 23.6085 204.28 23.4879C201.418 22.2212 198.528 21.0062 195.608 19.8429C195.146 19.6516 194.677 19.4655 194.209 19.2846C194.203 19.2819 194.199 19.2793 194.194 19.2773C194.19 19.2755 194.186 19.2742 194.18 19.2742C193.358 18.9485 192.535 18.628 191.713 18.3126L191.061 18.0644H191.056C161.458 6.81415 129.785 0.708722 97.6908 0.0672998C95.6229 0.0207681 93.5493 -0.00163181 91.4699 9.24283e-05H35.7504C31.4242 -0.00292881 27.117 0.51695 22.9429 1.54595C22.8997 1.55639 22.8579 1.56682 22.8161 1.57726C22.7751 1.5875 22.734 1.59774 22.6916 1.60799C13.9625 3.81563 6.1157 8.16967 0 14.1482V243Z" fill="#E3E8B4"/>
<path d="M0 242H220.548C229.426 226.579 234.029 209.617 234 192.43C234.004 172.204 227.623 152.352 215.53 134.967C203.436 117.583 186.079 103.31 165.289 93.6544C108.505 67.2834 39.034 80.3765 0 122.024V242Z" fill="#8FB062"/>
<path d="M390 264.549V189.782C372.56 161.855 346.357 140.912 315.748 130.433C285.138 119.954 251.965 120.571 221.743 132.181C213.28 135.443 201.449 139.517 187.526 144.311C131.01 163.773 40.0332 195.101 0 232.124V277H377.9C381.109 277 384.187 275.688 386.456 273.353C388.725 271.018 390 267.851 390 264.549Z" fill="#49612E"/>
<path d="M390 256.303C335.018 201.324 257.014 167 170.5 167C107.221 167 48.4948 185.363 0 216.74V639H390V256.303Z" fill="#304120"/>
</svg>
