<svg width="140" height="66" viewBox="0 0 140 66" fill="none" xmlns="http://www.w3.org/2000/svg">
<path d="M63.0696 55.6514C61.3291 58.4278 59.0708 58.3625 57.0347 57.0861C54.9987 55.8097 53.9559 53.8055 55.6964 51.0291C57.437 48.2527 63.3378 47.0317 63.3378 47.0317C63.3378 47.0317 64.8102 52.8749 63.0696 55.6514Z" fill="#49612E"/>
<path d="M8.88699 63.2295C7.14645 66.0059 4.88817 65.9406 2.85213 64.6642C0.816081 63.3878 -0.226735 61.3836 1.51381 58.6072C3.25435 55.8308 9.15519 54.6099 9.15519 54.6099C9.15519 54.6099 10.6275 60.453 8.88699 63.2295Z" fill="#49612E"/>
<path d="M138.47 9.42551C136.73 12.2019 134.472 12.1366 132.436 10.8602C130.4 9.58384 129.357 7.57967 131.097 4.80327C132.838 2.02686 138.739 0.805908 138.739 0.805908C138.739 0.805908 140.211 6.64909 138.47 9.42551Z" fill="#49612E"/>
</svg>
