<svg width="390" height="639" viewBox="0 0 390 639" fill="none" xmlns="http://www.w3.org/2000/svg">
<path d="M348.714 222.03C347.665 201.008 343.444 180.214 336.17 160.227C336.17 160.227 336.176 160.221 336.17 160.221C334.582 155.842 332.841 151.499 330.949 147.193C330.24 145.575 329.511 143.961 328.761 142.354C322.883 129.752 315.784 117.646 307.545 106.178C304.62 102.094 301.548 98.0958 298.33 94.1838C290.785 85.0109 282.511 76.3486 273.572 68.2661C269.922 64.9624 266.182 61.7724 262.353 58.6962C261.799 58.2464 261.245 57.8018 260.685 57.3675C246.919 46.4712 231.9 36.9433 215.888 28.9475C215.659 28.8234 215.437 28.7148 215.208 28.6062C211.946 26.9828 208.644 25.4283 205.303 23.9428C204.96 23.7877 204.623 23.6326 204.28 23.4879C201.418 22.2212 198.528 21.0062 195.608 19.8429C195.146 19.6516 194.677 19.4655 194.209 19.2846C194.198 19.2794 194.192 19.2742 194.18 19.2742C193.358 18.9485 192.535 18.628 191.713 18.3126C191.495 18.2299 191.278 18.1471 191.061 18.0644H191.056C161.458 6.81415 129.785 0.708721 97.6908 0.0672983C95.6229 0.0207674 93.5493 -0.00163102 91.4699 9.23433e-05H35.7504C31.4242 -0.00292904 27.117 0.516948 22.9429 1.54595C22.8573 1.56663 22.7773 1.58729 22.6916 1.60799C12.4348 4.202 3.3961 9.75946 -3.0474 17.4336C-9.4909 25.1078 -12.9859 34.478 -13 44.1166V235.932C-13.0006 236.973 -12.7463 238.001 -12.2554 238.943C-11.7645 239.884 -11.0491 240.715 -10.1609 241.377C-10.1495 241.387 -10.138 241.392 -10.1323 241.397C-8.73914 242.435 -6.98998 243.002 -5.18532 243H338.038C340.944 242.997 343.73 241.95 345.785 240.091C347.84 238.231 348.996 235.709 349 233.079C349 229.382 348.905 225.699 348.714 222.03Z" fill="#E9F0E2"/>
<path d="M234 192.43C234.029 209.617 229.426 226.579 220.548 242H-5.05307C-7.16072 242 -9.18205 241.284 -10.6724 240.01C-12.1627 238.736 -13 237.008 -13 235.207V138.758C21.6629 84.217 101.485 64.0232 165.289 93.6544C186.079 103.31 203.436 117.583 215.53 134.967C227.623 152.352 234.004 172.204 234 192.43V192.43Z" fill="#8FB062"/>
<path d="M390 189.782V264.549C390 267.851 388.725 271.018 386.456 273.353C384.187 275.688 381.109 277 377.9 277H-11.532C-13.7774 277 -15.9309 276.082 -17.5189 274.449C-19.1069 272.815 -19.9993 270.599 -20 268.289V268.2C-20 205.925 168.225 152.808 221.743 132.181C251.965 120.571 285.138 119.954 315.748 130.433C346.357 140.912 372.56 161.855 390 189.782L390 189.782Z" fill="#49612E"/>
<ellipse cx="170.5" cy="451" rx="301.5" ry="284" fill="#304120"/>
<path d="M100.07 164.651C98.329 167.428 96.0707 167.362 94.0347 166.086C91.9986 164.81 90.9558 162.806 92.6964 160.029C94.4369 157.253 100.338 156.032 100.338 156.032C100.338 156.032 101.81 161.875 100.07 164.651Z" fill="#49612E"/>
<path d="M45.887 172.229C44.1465 175.006 41.8882 174.941 39.8522 173.664C37.8161 172.388 36.7733 170.384 38.5138 167.607C40.2544 164.831 46.1552 163.61 46.1552 163.61C46.1552 163.61 47.6276 169.453 45.887 172.229Z" fill="#49612E"/>
<path d="M175.47 118.426C173.73 121.202 171.472 121.137 169.436 119.86C167.4 118.584 166.357 116.58 168.097 113.804C169.838 111.027 175.739 109.806 175.739 109.806C175.739 109.806 177.211 115.649 175.47 118.426Z" fill="#49612E"/>
</svg>
