<svg width="33" height="42" viewBox="0 0 33 42" fill="none" xmlns="http://www.w3.org/2000/svg">
<path d="M15.2499 0C18.2832 0 20.8749 1.05833 23.0249 3.175C25.1749 5.29167 26.2499 7.86667 26.2499 10.9C26.2499 12.6333 25.8749 14.2667 25.1249 15.8C24.3749 17.3333 23.3166 18.6333 21.9499 19.7H20.2499V17.2C21.2166 16.4333 21.9582 15.5 22.4749 14.4C22.9916 13.3 23.2499 12.1333 23.2499 10.9C23.2499 8.7 22.4666 6.83333 20.8999 5.3C19.3332 3.76667 17.4499 3 15.2499 3C13.0499 3 11.1666 3.76667 9.5999 5.3C8.03324 6.83333 7.2499 8.7 7.2499 10.9C7.2499 12.1333 7.50824 13.3 8.0249 14.4C8.54157 15.5 9.28324 16.4333 10.2499 17.2V20.8C8.38324 19.8333 6.91657 18.4667 5.8499 16.7C4.78324 14.9333 4.2499 13 4.2499 10.9C4.2499 7.86667 5.3249 5.29167 7.4749 3.175C9.6249 1.05833 12.2166 0 15.2499 0ZM13.3499 42C12.7832 42 12.2499 41.8917 11.7499 41.675C11.2499 41.4583 10.8166 41.1667 10.4499 40.8L0.149902 30.5L2.9499 27.6C3.41657 27.1333 3.94157 26.775 4.5249 26.525C5.10824 26.275 5.71657 26.2333 6.3499 26.4L10.2499 27.3V11C10.2499 9.6 10.7332 8.41667 11.6999 7.45C12.6666 6.48333 13.8499 6 15.2499 6C16.6499 6 17.8332 6.48333 18.7999 7.45C19.7666 8.41667 20.2499 9.6 20.2499 11V19.6H21.5499C21.7166 19.6 21.8666 19.6333 21.9999 19.7C22.1332 19.7667 22.2832 19.8333 22.4499 19.9L29.8499 23.5C30.6499 23.8667 31.2416 24.4583 31.6249 25.275C32.0082 26.0917 32.1166 26.9333 31.9499 27.8L30.1499 38.7C29.9832 39.6667 29.5166 40.4583 28.7499 41.075C27.9832 41.6917 27.1166 42 26.1499 42H13.3499ZM12.9499 39H26.9999L29.1499 26.55L19.9999 22H17.2499V11C17.2499 10.4 17.0666 9.91667 16.6999 9.55C16.3332 9.18333 15.8499 9 15.2499 9C14.6499 9 14.1666 9.18333 13.7999 9.55C13.4332 9.91667 13.2499 10.4 13.2499 11V30.95L5.5499 29.3L4.3999 30.45L12.9499 39ZM26.9999 39H12.9499H13.2499C13.2499 39 13.4332 39 13.7999 39C14.1666 39 14.6499 39 15.2499 39C15.8499 39 16.3332 39 16.6999 39C17.0666 39 17.2499 39 17.2499 39H19.9999H26.9999Z" fill="white"/>
</svg>
