<svg width="40" height="40" viewBox="0 0 40 40" fill="none" xmlns="http://www.w3.org/2000/svg">
<path d="M18.65 30H21.65V18H18.65V30ZM20 14.3C20.4667 14.3 20.8583 14.15 21.175 13.85C21.4917 13.55 21.65 13.1667 21.65 12.7C21.65 12.2333 21.4917 11.8333 21.175 11.5C20.8583 11.1667 20.4667 11 20 11C19.5333 11 19.1417 11.1667 18.825 11.5C18.5083 11.8333 18.35 12.2333 18.35 12.7C18.35 13.1667 18.5083 13.55 18.825 13.85C19.1417 14.15 19.5333 14.3 20 14.3ZM20 40C17.1667 40 14.5333 39.4917 12.1 38.475C9.66667 37.4583 7.55 36.05 5.75 34.25C3.95 32.45 2.54167 30.3333 1.525 27.9C0.508333 25.4667 0 22.8333 0 20C0 17.2 0.508333 14.5833 1.525 12.15C2.54167 9.71667 3.95 7.6 5.75 5.8C7.55 4 9.66667 2.58333 12.1 1.55C14.5333 0.516667 17.1667 0 20 0C22.8 0 25.4167 0.516667 27.85 1.55C30.2833 2.58333 32.4 4 34.2 5.8C36 7.6 37.4167 9.71667 38.45 12.15C39.4833 14.5833 40 17.2 40 20C40 22.8333 39.4833 25.4667 38.45 27.9C37.4167 30.3333 36 32.45 34.2 34.25C32.4 36.05 30.2833 37.4583 27.85 38.475C25.4167 39.4917 22.8 40 20 40ZM20 37C24.6667 37 28.6667 35.3333 32 32C35.3333 28.6667 37 24.6667 37 20C37 15.3333 35.3333 11.3333 32 8C28.6667 4.66667 24.6667 3 20 3C15.3333 3 11.3333 4.66667 8 8C4.66667 11.3333 3 15.3333 3 20C3 24.6667 4.66667 28.6667 8 32C11.3333 35.3333 15.3333 37 20 37Z" fill="black"/>
</svg>
