<svg width="79" height="124" viewBox="0 0 79 124" fill="none" xmlns="http://www.w3.org/2000/svg">
<path d="M78.6563 56.5386C78.6563 86.1593 61.0481 96.4991 39.3256 96.4991C38.8249 96.4991 38.3241 96.494 37.8234 96.4837C36.8168 96.4578 35.8205 96.4165 34.8345 96.3391C30.2337 96.0677 25.6985 95.1161 21.3767 93.5154C8.68282 88.6371 0 77.3423 0 56.5386C0.00178322 55.2105 0.0776143 53.8835 0.227138 52.5637C0.955007 45.92 3.41223 38.9872 6.76766 32.2505C8.69138 28.4224 10.8249 24.7034 13.1585 21.1105C16.1319 16.4955 19.3273 12.1231 22.4297 8.18436C24.3922 5.68304 26.8877 3.65073 29.7345 2.23534C32.5814 0.819953 35.708 0.0570975 38.8868 0.00229431C38.959 0.00229431 39.0313 -0.00286788 39.1088 0.00229431C42.3992 -0.0427918 45.6557 0.672059 48.6247 2.0912C51.5937 3.51035 54.1952 5.5955 56.2266 8.18436C66.8865 21.7248 78.6563 40.3345 78.6563 56.5386Z" fill="#8FB062"/>
<path d="M37.8956 91.9667L52.2775 71.8703L37.8595 94.1761L37.8234 96.4836L37.4155 121.298L37.3794 123.513H33.4097L33.802 116.023L34.8344 96.3391L36.3831 66.7133L36.3676 66.481L36.3934 66.4397L36.5431 63.6418L22.089 41.2792L36.5844 61.5408L36.6206 62.1344L37.7924 39.746L25.4186 16.64L37.9473 35.8227L38.8868 0.00229431C38.959 0.00229431 39.0313 -0.00286788 39.1088 0.00229431L38.9642 25.9991L51.2864 11.4882L38.9126 29.148L38.5874 49.198L50.0939 29.9585L38.5409 52.1456L38.3602 63.2908L55.0599 36.5145L38.2983 67.1779L37.8956 91.9667Z" fill="#314123"/>
</svg>
