<svg width="117" height="190" viewBox="0 0 117 190" fill="none" xmlns="http://www.w3.org/2000/svg">
<path d="M116.836 89.9435C116.836 93.2164 116.693 96.3326 116.407 99.2923C112.907 136.135 88.2786 149.298 58.4154 149.298C57.6668 149.298 56.9183 149.288 56.1801 149.273C54.6831 149.242 53.2033 149.171 51.7406 149.061C47.3783 148.779 43.0493 148.112 38.8042 147.068C28.2527 144.446 19.1053 139.372 12.3428 131.189C4.60984 121.83 0 108.409 0 89.9435C0 76.2328 5.67326 61.3605 13.4837 47.3813C22.0116 32.1167 33.0897 17.9207 42.108 7.46205C44.0715 5.17749 46.4944 3.33241 49.2189 2.04713C51.9433 0.761851 54.9081 0.0652292 57.9198 0.00268644H58.1263C61.2711 -0.0470866 64.3885 0.595316 67.2574 1.88438C70.1264 3.17345 72.6768 5.07764 74.7279 7.46205C92.0109 27.4965 116.836 61.2624 116.836 89.9435Z" fill="#8FB062"/>
<path d="M56.3041 142.565L77.6704 112.712L56.2524 145.843L56.1957 149.271L55.953 164.215L55.793 174.313L55.5452 189.422H49.6448L50.3366 176.202L51.2503 158.738L51.7562 149.059L54.0585 105.052L54.043 104.711L54.0792 104.649L54.296 100.488L32.8264 67.2747L54.3631 97.3702L54.4147 98.253L56.1544 64.9981L53.5062 60.0476H53.501L37.7718 30.6799L56.3815 59.1597L57.9353 0.000976562H58.1418L57.894 44.5765L76.194 23.0243L57.8218 49.2586L57.6153 61.8234L57.3365 79.0341L65.4515 65.4627L74.4233 50.4614L66.3755 65.917L57.2642 83.4168L56.9958 99.972L75.3267 70.5733L81.8001 60.1973L75.941 70.914L56.9029 105.748L56.3041 142.565Z" fill="#314123"/>
</svg>
