<svg width="63" height="120" viewBox="0 0 63 120" fill="none" xmlns="http://www.w3.org/2000/svg">
<path d="M31.2894 62.5788C48.5701 62.5788 62.5788 48.5701 62.5788 31.2894C62.5788 14.0087 48.5701 0 31.2894 0C14.0087 0 0 14.0087 0 31.2894C0 48.5701 14.0087 62.5788 31.2894 62.5788Z" fill="#61813D"/>
<path opacity="0.2" d="M54.3924 10.3906C57.311 17.2178 57.707 24.8602 55.5095 31.9524C53.312 39.0446 48.6642 45.1243 42.3968 49.1051C36.1294 53.086 28.6506 54.7086 21.297 53.6829C13.9433 52.6573 7.194 49.0503 2.255 43.5064C4.0379 47.6775 6.70633 51.4111 10.0754 54.4485C13.4445 57.486 17.4337 59.7546 21.7666 61.0973C26.0995 62.4399 30.6725 62.8245 35.1688 62.2244C39.665 61.6242 43.9771 60.0537 47.8061 57.6216C51.6352 55.1895 54.8897 51.954 57.3442 48.1393C59.7987 44.3246 61.3945 40.0218 62.021 35.5291C62.6475 31.0364 62.2897 26.4613 60.9725 22.1206C59.6553 17.7799 57.41 13.7775 54.3924 10.3906Z" fill="black"/>
<path d="M31.2036 31.2896H31.1176L29.5703 120H32.8369L31.2036 31.2896Z" fill="#3F3D56"/>
</svg>
