<svg width="146" height="239" viewBox="0 0 146 239" fill="none" xmlns="http://www.w3.org/2000/svg">
<path d="M145.243 114.516C145.243 118.409 145.082 122.124 144.758 125.662C140.577 171.827 109.872 188.305 72.6217 188.305C71.6874 188.305 70.7633 188.294 69.8393 188.269C67.9809 188.232 66.138 188.145 64.3209 188.016C47.6006 186.834 32.6096 181.914 21.3095 171.956C19.3802 170.254 17.5741 168.416 15.9047 166.458C5.95201 154.797 0 137.917 0 114.516C0 76.4865 35.1029 31.2657 56.5002 7.23574C58.4602 5.02645 60.8539 3.24423 63.5324 2C66.2109 0.755777 69.1169 0.0761787 72.0694 0.00350833H72.2758C75.3803 -0.0525998 78.46 0.564879 81.3028 1.81341C84.1456 3.06195 86.6841 4.91186 88.7432 7.23574C98.4869 18.1299 107.566 29.6004 115.932 41.585C131.476 64.0663 145.243 90.7032 145.243 114.516Z" fill="#49612E"/>
<path d="M69.9735 179.937L96.5381 142.821L69.9064 184.01L69.8392 188.269L69.2456 224.792L69.0288 238.187H61.6933L62.1992 228.513L64.3209 188.016L67.1859 133.302L67.1601 132.874L67.2117 132.796L67.2323 132.357L67.4801 127.629L40.7864 86.3416L67.5627 123.752L67.6247 124.846L69.7876 83.5075L48.158 43.1237L46.9346 40.842L48.3852 43.0617L70.0716 76.2443L70.3916 63.9015L70.9801 41.5183L72.0693 0.00390625H72.2758L72.0487 41.5183L71.9557 58.1199L86.0485 41.5183L94.7055 31.3229L87.5611 41.5183L71.8577 63.9376L71.2588 100.956L92.5013 65.4347L71.1711 106.402L70.8356 126.983L101.669 77.5349L73.0966 129.812L70.7168 134.164L69.9735 179.937Z" fill="#314123"/>
</svg>
