<svg width="45" height="121" viewBox="0 0 45 121" fill="none" xmlns="http://www.w3.org/2000/svg">
<path d="M22.6864 120C22.6864 120 31.8004 89.0627 20.9809 66.2982C16.3826 56.7778 14.9967 46.0227 17.0311 35.6475C18.0348 30.7293 19.4872 25.9134 21.3698 21.2603" stroke="#535461" stroke-width="2" stroke-miterlimit="10"/>
<path d="M14.6365 6.86621C14.6365 10.6592 21.4993 21.6492 21.4993 21.6492C21.4993 21.6492 28.3621 10.6523 28.3621 6.86621C28.3621 5.04518 27.6387 3.29875 26.3511 2.01108C25.0634 0.723421 23.3169 0 21.4959 0C19.6749 0 17.9284 0.723421 16.6408 2.01108C15.3531 3.29875 14.6297 5.04518 14.6297 6.86621H14.6365Z" fill="#61813D"/>
<path d="M3.28518 27.864C5.33174 31.043 17.0858 36.5414 17.0858 36.5414C17.0858 36.5414 16.8743 23.5799 14.8141 20.4009C14.3241 19.6439 13.6898 18.9908 12.9473 18.479C12.2049 17.9671 11.3689 17.6065 10.4872 17.4178C9.60537 17.229 8.69503 17.2158 7.80812 17.3788C6.92122 17.5418 6.07511 17.8779 5.31811 18.368C4.5611 18.858 3.90802 19.4924 3.39617 20.2348C2.88432 20.9772 2.52373 21.8132 2.33496 22.695C2.14618 23.5768 2.13292 24.4871 2.29596 25.374C2.459 26.2609 2.79515 27.107 3.28518 27.864Z" fill="#61813D"/>
<path d="M3.78326 63.754C7.19419 65.4595 20.0739 64.2793 20.0739 64.2793C20.0739 64.2793 13.3475 53.2006 9.96386 51.4951C9.15759 51.0893 8.27928 50.8462 7.37908 50.7798C6.47888 50.7135 5.57441 50.825 4.71733 51.1082C3.86024 51.3914 3.06733 51.8406 2.38385 52.4302C1.70036 53.0198 1.13971 53.7382 0.733882 54.5445C0.328057 55.3508 0.0849997 56.2291 0.0186144 57.1293C-0.0477709 58.0295 0.063806 58.9339 0.346967 59.791C0.630127 60.6481 1.07933 61.441 1.66893 62.1245C2.25853 62.808 2.97698 63.3686 3.78326 63.7744V63.754Z" fill="#61813D"/>
<path d="M10.2708 90.823C13.3202 93.0743 26.2408 94.0975 26.2408 94.0975C26.2408 94.0975 21.4655 82.0433 18.4366 79.7716C17.7119 79.2341 16.8883 78.8446 16.0131 78.6253C15.1378 78.4061 14.2279 78.3614 13.3353 78.4938C12.4428 78.6262 11.585 78.9331 10.8111 79.397C10.0371 79.8608 9.36212 80.4727 8.8246 81.1974C8.28709 81.9222 7.8976 82.7457 7.67835 83.6209C7.4591 84.4962 7.41438 85.4061 7.54677 86.2987C7.67917 87.1912 7.98607 88.049 8.44995 88.823C8.91383 89.5969 9.52562 90.2719 10.2504 90.8094L10.2708 90.823Z" fill="#61813D"/>
<path d="M31.5004 37.2778C28.7717 39.9179 16.1103 42.6534 16.1103 42.6534C16.1103 42.6534 19.2142 30.0671 21.9293 27.427C22.5701 26.771 23.3358 26.2501 24.1812 25.8949C25.0266 25.5398 25.9346 25.3577 26.8516 25.3594C27.7686 25.3611 28.6759 25.5465 29.52 25.9048C30.3641 26.263 31.1279 26.7867 31.7662 27.4451C32.4045 28.1034 32.9044 28.8831 33.2363 29.7378C33.5683 30.5926 33.7255 31.5053 33.6988 32.4219C33.6722 33.3385 33.4621 34.2404 33.081 35.0744C32.6999 35.9085 32.1555 36.6577 31.48 37.2778H31.5004Z" fill="#61813D"/>
<path d="M38.6839 69.0338C35.2729 70.7393 22.3932 69.5591 22.3932 69.5591C22.3932 69.5591 29.1196 58.4804 32.5032 56.7749C33.3095 56.3691 34.1878 56.126 35.088 56.0596C35.9882 55.9932 36.8927 56.1048 37.7498 56.388C38.6069 56.6711 39.3998 57.1204 40.0833 57.71C40.7667 58.2996 41.3274 59.018 41.7332 59.8243C42.139 60.6305 42.3821 61.5089 42.4485 62.4091C42.5149 63.3093 42.4033 64.2137 42.1201 65.0708C41.837 65.9279 41.3878 66.7208 40.7982 67.4043C40.2086 68.0878 39.4901 68.6485 38.6839 69.0543V69.0338Z" fill="#61813D"/>
<path d="M41.4397 100.851C38.3903 103.102 25.4697 104.125 25.4697 104.125C25.4697 104.125 30.245 92.0712 33.2739 89.7995C34.7376 88.7139 36.5726 88.2543 38.3752 88.5217C40.1778 88.789 41.8004 89.7616 42.8859 91.2253C43.9715 92.689 44.4312 94.5239 44.1638 96.3265C43.8964 98.1291 42.9239 99.7517 41.4602 100.837L41.4397 100.851Z" fill="#61813D"/>
<path opacity="0.5" d="M14.6365 6.86621C14.6365 10.6592 21.4993 21.6492 21.4993 21.6492C21.4993 21.6492 28.3621 10.6523 28.3621 6.86621C28.3621 5.04518 27.6387 3.29875 26.3511 2.01108C25.0634 0.723421 23.3169 0 21.4959 0C19.6749 0 17.9284 0.723421 16.6408 2.01108C15.3531 3.29875 14.6297 5.04518 14.6297 6.86621H14.6365Z" fill="white"/>
<path opacity="0.5" d="M3.28518 27.864C5.33174 31.043 17.0858 36.5414 17.0858 36.5414C17.0858 36.5414 16.8743 23.5799 14.8141 20.4009C14.3241 19.6439 13.6898 18.9908 12.9473 18.479C12.2049 17.9671 11.3689 17.6065 10.4872 17.4178C9.60537 17.229 8.69503 17.2158 7.80812 17.3788C6.92122 17.5418 6.07511 17.8779 5.31811 18.368C4.5611 18.858 3.90802 19.4924 3.39617 20.2348C2.88432 20.9772 2.52373 21.8132 2.33496 22.695C2.14618 23.5768 2.13292 24.4871 2.29596 25.374C2.459 26.2609 2.79515 27.107 3.28518 27.864Z" fill="white"/>
<path opacity="0.5" d="M3.78326 63.754C7.19419 65.4595 20.0739 64.2793 20.0739 64.2793C20.0739 64.2793 13.3475 53.2006 9.96386 51.4951C9.15759 51.0893 8.27928 50.8462 7.37908 50.7798C6.47888 50.7135 5.57441 50.825 4.71733 51.1082C3.86024 51.3914 3.06733 51.8406 2.38385 52.4302C1.70036 53.0198 1.13971 53.7382 0.733882 54.5445C0.328057 55.3508 0.0849997 56.2291 0.0186144 57.1293C-0.0477709 58.0295 0.063806 58.9339 0.346967 59.791C0.630127 60.6481 1.07933 61.441 1.66893 62.1245C2.25853 62.808 2.97698 63.3686 3.78326 63.7744V63.754Z" fill="white"/>
<path opacity="0.5" d="M10.2708 90.823C13.3202 93.0743 26.2408 94.0975 26.2408 94.0975C26.2408 94.0975 21.4655 82.0433 18.4366 79.7716C17.7119 79.2341 16.8883 78.8446 16.0131 78.6253C15.1378 78.4061 14.2279 78.3614 13.3353 78.4938C12.4428 78.6262 11.585 78.9331 10.8111 79.397C10.0371 79.8608 9.36212 80.4727 8.8246 81.1974C8.28709 81.9222 7.8976 82.7457 7.67835 83.6209C7.4591 84.4962 7.41438 85.4061 7.54677 86.2987C7.67917 87.1912 7.98607 88.049 8.44995 88.823C8.91383 89.5969 9.52562 90.2719 10.2504 90.8094L10.2708 90.823Z" fill="white"/>
<path opacity="0.5" d="M31.5004 37.2778C28.7717 39.9179 16.1103 42.6534 16.1103 42.6534C16.1103 42.6534 19.2142 30.0671 21.9293 27.427C22.5701 26.771 23.3358 26.2501 24.1812 25.8949C25.0266 25.5398 25.9346 25.3577 26.8516 25.3594C27.7686 25.3611 28.6759 25.5465 29.52 25.9048C30.3641 26.263 31.1279 26.7867 31.7662 27.4451C32.4045 28.1034 32.9044 28.8831 33.2363 29.7378C33.5683 30.5926 33.7255 31.5053 33.6988 32.4219C33.6722 33.3385 33.4621 34.2404 33.081 35.0744C32.6999 35.9085 32.1555 36.6577 31.48 37.2778H31.5004Z" fill="white"/>
<path opacity="0.5" d="M38.6839 69.0338C35.2729 70.7393 22.3932 69.5591 22.3932 69.5591C22.3932 69.5591 29.1196 58.4804 32.5032 56.7749C33.3095 56.3691 34.1878 56.126 35.088 56.0596C35.9882 55.9932 36.8927 56.1048 37.7498 56.388C38.6069 56.6711 39.3998 57.1204 40.0833 57.71C40.7667 58.2996 41.3274 59.018 41.7332 59.8243C42.139 60.6305 42.3821 61.5089 42.4485 62.4091C42.5149 63.3093 42.4033 64.2137 42.1201 65.0708C41.837 65.9279 41.3878 66.7208 40.7982 67.4043C40.2086 68.0878 39.4901 68.6485 38.6839 69.0543V69.0338Z" fill="white"/>
<path opacity="0.5" d="M41.4397 100.851C38.3903 103.102 25.4697 104.125 25.4697 104.125C25.4697 104.125 30.245 92.0712 33.2739 89.7995C34.7376 88.7139 36.5726 88.2543 38.3752 88.5217C40.1778 88.789 41.8004 89.7616 42.8859 91.2253C43.9715 92.689 44.4312 94.5239 44.1638 96.3265C43.8964 98.1291 42.9239 99.7517 41.4602 100.837L41.4397 100.851Z" fill="white"/>
</svg>
