<svg width="45" height="121" viewBox="0 0 45 121" fill="none" xmlns="http://www.w3.org/2000/svg">
<path d="M22.8532 120C22.8532 120 31.9767 89.0236 21.1409 66.224C16.5921 56.6566 15.0832 45.9132 17.1838 35.5286C18.1882 30.5981 19.6428 25.7702 21.5292 21.1055" stroke="#535461" stroke-width="2" stroke-miterlimit="10"/>
<path d="M14.791 6.71557C14.791 10.5137 21.666 21.5085 21.666 21.5085C21.666 21.5085 28.541 10.4989 28.541 6.71557C28.4994 4.9203 27.7569 3.21258 26.4725 1.9576C25.1881 0.702619 23.4636 0 21.6678 0C19.8721 0 18.1476 0.702619 16.8631 1.9576C15.5787 3.21258 14.8363 4.9203 14.7947 6.71557H14.791Z" fill="#61813D"/>
<path d="M3.42632 27.7438C5.48994 30.9317 17.2429 36.4346 17.2429 36.4346C17.2429 36.4346 17.0284 23.4575 14.9648 20.2697C14.4858 19.4873 13.855 18.8087 13.1096 18.2739C12.3642 17.7391 11.5194 17.3589 10.6248 17.1557C9.73019 16.9525 8.80399 16.9303 7.90072 17.0906C6.99744 17.2508 6.13538 17.5902 5.36531 18.0888C4.59524 18.5874 3.93274 19.235 3.41683 19.9936C2.90093 20.7522 2.54206 21.6063 2.36137 22.5057C2.18067 23.4051 2.18181 24.3316 2.36471 25.2306C2.5476 26.1295 2.90856 26.9828 3.42632 27.7401V27.7438Z" fill="#61813D"/>
<path d="M3.93664 63.6793C7.32793 65.3879 20.2496 64.2082 20.2496 64.2082C20.2496 64.2082 13.5151 53.1135 10.1238 51.4049C9.31522 50.9713 8.42805 50.704 7.51456 50.6187C6.60107 50.5333 5.67974 50.6317 4.80486 50.908C3.92997 51.1842 3.11923 51.6328 2.4204 52.2273C1.72158 52.8217 1.1488 53.5501 0.735836 54.3693C0.322868 55.1886 0.0780587 56.0822 0.0158318 56.9976C-0.0463951 57.913 0.0752205 58.8315 0.373512 59.6991C0.671803 60.5668 1.14073 61.3659 1.75268 62.0495C2.36462 62.733 3.10719 63.2872 3.93664 63.6793Z" fill="#61813D"/>
<path d="M10.4234 90.784C13.4745 93.0399 26.4146 94.0606 26.4146 94.0606C26.4146 94.0606 21.6513 81.9896 18.6002 79.7299C17.1334 78.6629 15.3043 78.2188 13.5115 78.4944C11.7187 78.7699 10.1075 79.7428 9.02877 81.2011C7.95008 82.6593 7.49138 84.4848 7.75261 86.2797C8.01383 88.0747 8.97381 89.6937 10.4234 90.784Z" fill="#61813D"/>
<path d="M31.6734 37.1706C28.9515 39.8148 16.2628 42.5552 16.2628 42.5552C16.2628 42.5552 19.3693 29.9553 22.0912 27.3074C23.3992 26.0367 25.1583 25.3376 26.9817 25.364C28.805 25.3904 30.5432 26.14 31.8139 27.4479C33.0846 28.7558 33.7836 30.515 33.7573 32.3383C33.7309 34.1617 32.9813 35.8999 31.6734 37.1706Z" fill="#61813D"/>
<path d="M38.874 68.9681C35.4827 70.6767 22.5611 69.497 22.5611 69.497C22.5611 69.497 29.2956 58.4023 32.6869 56.6937C34.3095 55.9154 36.1727 55.8045 37.8762 56.3846C39.5798 56.9647 40.988 58.1897 41.7984 59.7966C42.6089 61.4034 42.7569 63.264 42.2109 64.9788C41.6648 66.6936 40.4681 68.1258 38.8777 68.9681H38.874Z" fill="#61813D"/>
<path d="M41.6291 100.828C38.5781 103.084 25.6379 104.105 25.6379 104.105C25.6379 104.105 30.4013 92.034 33.4523 89.7743C34.9191 88.7073 36.7482 88.2633 38.541 88.5388C40.3338 88.8144 41.9451 89.7872 43.0238 91.2455C44.1025 92.7037 44.5611 94.5292 44.2999 96.3242C44.0387 98.1191 43.0787 99.7381 41.6291 100.828Z" fill="#61813D"/>
<path opacity="0.25" d="M14.791 6.71557C14.791 10.5137 21.666 21.5085 21.666 21.5085C21.666 21.5085 28.541 10.4989 28.541 6.71557C28.4994 4.9203 27.7569 3.21258 26.4725 1.9576C25.1881 0.702619 23.4636 0 21.6678 0C19.8721 0 18.1476 0.702619 16.8631 1.9576C15.5787 3.21258 14.8363 4.9203 14.7947 6.71557H14.791Z" fill="black"/>
<path opacity="0.25" d="M3.42632 27.7438C5.48994 30.9317 17.2429 36.4346 17.2429 36.4346C17.2429 36.4346 17.0284 23.4575 14.9648 20.2697C14.4858 19.4873 13.855 18.8087 13.1096 18.2739C12.3642 17.7391 11.5194 17.3589 10.6248 17.1557C9.73019 16.9525 8.80399 16.9303 7.90072 17.0906C6.99744 17.2508 6.13538 17.5902 5.36531 18.0888C4.59524 18.5874 3.93274 19.235 3.41683 19.9936C2.90093 20.7522 2.54206 21.6063 2.36137 22.5057C2.18067 23.4051 2.18181 24.3316 2.36471 25.2306C2.5476 26.1295 2.90856 26.9828 3.42632 27.7401V27.7438Z" fill="black"/>
<path opacity="0.25" d="M3.93664 63.6793C7.32793 65.3879 20.2496 64.2082 20.2496 64.2082C20.2496 64.2082 13.5151 53.1135 10.1238 51.4049C9.31522 50.9713 8.42805 50.704 7.51456 50.6187C6.60107 50.5333 5.67974 50.6317 4.80486 50.908C3.92997 51.1842 3.11923 51.6328 2.4204 52.2273C1.72158 52.8217 1.1488 53.5501 0.735836 54.3693C0.322868 55.1886 0.0780587 56.0822 0.0158318 56.9976C-0.0463951 57.913 0.0752205 58.8315 0.373512 59.6991C0.671803 60.5668 1.14073 61.3659 1.75268 62.0495C2.36462 62.733 3.10719 63.2872 3.93664 63.6793Z" fill="black"/>
<path opacity="0.25" d="M10.4234 90.784C13.4745 93.0399 26.4146 94.0606 26.4146 94.0606C26.4146 94.0606 21.6513 81.9896 18.6002 79.7299C17.1334 78.6629 15.3043 78.2188 13.5115 78.4944C11.7187 78.7699 10.1075 79.7428 9.02877 81.2011C7.95008 82.6593 7.49138 84.4848 7.75261 86.2797C8.01383 88.0747 8.97381 89.6937 10.4234 90.784Z" fill="black"/>
<path opacity="0.25" d="M31.6734 37.1706C28.9515 39.8148 16.2628 42.5552 16.2628 42.5552C16.2628 42.5552 19.3693 29.9553 22.0912 27.3074C23.3992 26.0367 25.1583 25.3376 26.9817 25.364C28.805 25.3904 30.5432 26.14 31.8139 27.4479C33.0846 28.7558 33.7836 30.515 33.7573 32.3383C33.7309 34.1617 32.9813 35.8999 31.6734 37.1706Z" fill="black"/>
<path opacity="0.25" d="M38.874 68.9681C35.4827 70.6767 22.5611 69.497 22.5611 69.497C22.5611 69.497 29.2956 58.4023 32.6869 56.6937C34.3095 55.9154 36.1727 55.8045 37.8762 56.3846C39.5798 56.9647 40.988 58.1897 41.7984 59.7966C42.6089 61.4034 42.7569 63.264 42.2109 64.9788C41.6648 66.6936 40.4681 68.1258 38.8777 68.9681H38.874Z" fill="black"/>
<path opacity="0.25" d="M41.6291 100.828C38.5781 103.084 25.6379 104.105 25.6379 104.105C25.6379 104.105 30.4013 92.034 33.4523 89.7743C34.9191 88.7073 36.7482 88.2633 38.541 88.5388C40.3338 88.8144 41.9451 89.7872 43.0238 91.2455C44.1025 92.7037 44.5611 94.5292 44.2999 96.3242C44.0387 98.1191 43.0787 99.7381 41.6291 100.828Z" fill="black"/>
</svg>
