<svg width="77" height="120" viewBox="0 0 77 120" fill="none" xmlns="http://www.w3.org/2000/svg">
<path d="M76.4192 54.9306C76.4192 83.7088 59.3118 93.7546 38.2071 93.7546C37.7206 93.7546 37.2341 93.7496 36.7476 93.7395C35.7696 93.7144 34.8017 93.6743 33.8437 93.5991C29.3738 93.3354 24.9676 92.4109 20.7687 90.8557C8.43587 86.1162 0 75.1425 0 54.9306C0.0017325 53.6402 0.0754068 52.3509 0.220678 51.0688C0.927845 44.614 3.31518 37.8783 6.57518 31.3333C8.44419 27.6141 10.517 24.0008 12.7842 20.5101C15.6731 16.0263 18.7776 11.7783 21.7918 7.95159C23.6984 5.52141 26.1229 3.5469 28.8888 2.17177C31.6547 0.796633 34.6924 0.0554736 37.7808 0.00222905C37.851 0.00222905 37.9212 -0.00278632 37.9965 0.00222905C41.1933 -0.0415747 44.3571 0.652945 47.2417 2.03173C50.1263 3.41051 52.6538 5.43635 54.6274 7.95159C64.9842 21.1069 76.4192 39.1874 76.4192 54.9306Z" fill="#8FB062"/>
<path d="M36.8179 89.3511L50.7907 69.8262L36.7827 91.4976L36.7476 93.7395L36.3514 117.848L36.3163 120H32.4595L32.8406 112.723L33.8437 93.5991L35.3483 64.8159L35.3333 64.5902L35.3584 64.5501L35.5038 61.8317L21.4608 40.1051L35.5439 59.7905L35.579 60.3672L36.7175 38.6156L24.6957 16.1668L36.868 34.8039L37.7808 0.00222905C37.851 0.00222905 37.9212 -0.00278632 37.9965 0.00222905L37.856 25.2596L49.8277 11.1614L37.8059 28.319L37.4899 47.7987L48.6691 29.1064L37.4448 50.6625L37.2692 61.4907L53.494 35.476L37.209 65.2673L36.8179 89.3511Z" fill="#314123"/>
</svg>
