<svg width="41" height="120" viewBox="0 0 41 120" fill="none" xmlns="http://www.w3.org/2000/svg">
<path d="M20.1227 120V4.99756" stroke="#3F3D56" stroke-width="2" stroke-miterlimit="10"/>
<path d="M20.1228 9.88485C22.8524 9.88485 25.0652 7.67205 25.0652 4.94243C25.0652 2.2128 22.8524 0 20.1228 0C17.3932 0 15.1804 2.2128 15.1804 4.94243C15.1804 7.67205 17.3932 9.88485 20.1228 9.88485Z" fill="#3F3D56"/>
<path d="M4.94243 94.2286C7.67206 94.2286 9.88486 92.0158 9.88486 89.2862C9.88486 86.5565 7.67206 84.3438 4.94243 84.3438C2.2128 84.3438 0 86.5565 0 89.2862C0 92.0158 2.2128 94.2286 4.94243 94.2286Z" fill="#3F3D56"/>
<path d="M20.1228 30.1885C20.1228 30.1885 19.4167 15.0026 4.94244 16.7678L20.1228 30.1885Z" fill="#3F3D56"/>
<path d="M20.1228 73.2388C20.1228 73.2388 19.4167 58.0529 4.94244 59.8181L20.1228 73.2388Z" fill="#3F3D56"/>
<path d="M20.1228 118.642C20.1228 118.642 23.3 90.6987 4.94244 89.2866" stroke="#3F3D56" stroke-width="2" stroke-miterlimit="10"/>
<path d="M35.3052 94.2286C38.0348 94.2286 40.2476 92.0158 40.2476 89.2862C40.2476 86.5565 38.0348 84.3438 35.3052 84.3438C32.5756 84.3438 30.3628 86.5565 30.3628 89.2862C30.3628 92.0158 32.5756 94.2286 35.3052 94.2286Z" fill="#3F3D56"/>
<path d="M20.1249 118.642C20.1249 118.642 16.9477 90.6987 35.3053 89.2866" stroke="#3F3D56" stroke-width="2" stroke-miterlimit="10"/>
<path d="M35.6063 47.8673C38.3359 47.8673 40.5487 45.6545 40.5487 42.9249C40.5487 40.1952 38.3359 37.9824 35.6063 37.9824C32.8767 37.9824 30.6639 40.1952 30.6639 42.9249C30.6639 45.6545 32.8767 47.8673 35.6063 47.8673Z" fill="#3F3D56"/>
<path d="M20.426 72.2799C20.426 72.2799 17.2487 44.3369 35.6063 42.9248" stroke="#3F3D56" stroke-width="2" stroke-miterlimit="10"/>
</svg>
