<svg width="56" height="120" viewBox="0 0 56 120" fill="none" xmlns="http://www.w3.org/2000/svg">
<path d="M0 52.0378C0 36.6098 12.536 0 28 0C43.464 0 56 36.6098 56 52.0378C56 59.4466 53.05 66.5519 47.799 71.7907C42.548 77.0295 35.4261 79.9726 28 79.9726C20.5739 79.9726 13.452 77.0295 8.20101 71.7907C2.94999 66.5519 1.10657e-07 59.4466 0 52.0378Z" fill="#61813D"/>
<path d="M28 120C27.9389 120 27.8804 119.976 27.8372 119.933C27.794 119.89 27.7698 119.831 27.7698 119.77V23.4602C27.7698 23.3992 27.794 23.3408 27.8372 23.2977C27.8804 23.2547 27.9389 23.2305 28 23.2305C28.0611 23.2305 28.1196 23.2547 28.1628 23.2977C28.206 23.3408 28.2302 23.3992 28.2302 23.4602V119.77C28.2302 119.831 28.206 119.89 28.1628 119.933C28.1196 119.976 28.0611 120 28 120Z" fill="#3F3D56"/>
<path d="M28 42.0536C27.9698 42.0536 27.9398 42.0477 27.9119 42.0361C27.8839 42.0246 27.8586 42.0076 27.8372 41.9863L16.7549 30.9298C16.7333 30.9085 16.7161 30.8831 16.7043 30.8552C16.6926 30.8273 16.6865 30.7973 16.6864 30.767C16.6863 30.7367 16.6922 30.7067 16.7038 30.6787C16.7154 30.6507 16.7324 30.6253 16.7538 30.6039C16.7753 30.5825 16.8008 30.5655 16.8289 30.554C16.8569 30.5424 16.887 30.5365 16.9174 30.5366C16.9477 30.5367 16.9778 30.5428 17.0058 30.5545C17.0338 30.5663 17.0592 30.5834 17.0805 30.6049L28.1628 41.6615C28.195 41.6936 28.217 41.7345 28.2258 41.7791C28.2347 41.8236 28.2301 41.8698 28.2127 41.9118C28.1953 41.9537 28.1658 41.9896 28.1279 42.0148C28.0901 42.0401 28.0456 42.0535 28 42.0536V42.0536Z" fill="#3F3D56"/>
<path d="M28 61.1945C27.9545 61.1945 27.91 61.181 27.8721 61.1558C27.8342 61.1305 27.8047 61.0947 27.7873 61.0527C27.7699 61.0107 27.7653 60.9645 27.7742 60.92C27.7831 60.8754 27.805 60.8345 27.8372 60.8024L46.3966 42.2861C46.4179 42.2645 46.4433 42.2474 46.4713 42.2357C46.4993 42.224 46.5293 42.2179 46.5597 42.2178C46.5901 42.2177 46.6201 42.2236 46.6482 42.2351C46.6763 42.2467 46.7018 42.2636 46.7232 42.285C46.7447 42.3064 46.7617 42.3319 46.7733 42.3599C46.7849 42.3879 46.7908 42.4179 46.7907 42.4482C46.7906 42.4785 46.7845 42.5084 46.7727 42.5364C46.761 42.5643 46.7438 42.5896 46.7222 42.6109L28.1628 61.1272C28.1415 61.1486 28.1161 61.1655 28.0881 61.1771C28.0602 61.1886 28.0302 61.1945 28 61.1945Z" fill="#3F3D56"/>
</svg>
